<?xml version="1.0" standalone="no"?>
<!DOCTYPE svg PUBLIC "-//W3C//DTD SVG 20010904//EN"
 "http://www.w3.org/TR/2001/REC-SVG-20010904/DTD/svg10.dtd">
<svg version="1.0" xmlns="http://www.w3.org/2000/svg"
 width="1280.000000pt" height="640.000000pt" viewBox="0 0 1280.000000 640.000000"
 preserveAspectRatio="xMidYMid meet">
<metadata>
Created by potrace 1.15, written by Peter Selinger 2001-2017
</metadata>
<g transform="translate(0.000000,640.000000) scale(0.100000,-0.100000)"
fill="#000000" stroke="none">
<path d="M4900 6015 c-853 -34 -1376 -116 -1842 -286 -548 -200 -996 -584
-1483 -1271 -77 -109 -92 -125 -107 -117 -25 13 -68 -8 -87 -43 -14 -24 -14
-28 1 -45 16 -18 13 -24 -59 -123 -251 -347 -480 -725 -790 -1305 l-123 -230
33 -17 c32 -17 31 -17 -108 -20 l-140 -3 -3 -167 -2 -167 -33 -22 c-47 -33
-117 -100 -132 -129 -9 -18 -10 -40 -5 -75 6 -34 3 -70 -7 -115 -17 -75 -9
-278 11 -286 6 -2 84 -17 173 -32 l161 -28 6 70 c17 194 15 186 44 186 15 0
56 -5 92 -10 95 -13 634 -67 860 -85 107 -9 196 -17 197 -19 2 -2 -2 -37 -8
-77 -16 -107 -6 -314 21 -419 95 -370 393 -668 768 -767 83 -22 119 -26 252
-27 166 -1 218 7 358 55 328 111 588 394 679 738 22 82 26 119 27 249 l1 153
110 -6 c209 -11 275 -17 281 -26 3 -5 103 -9 222 -9 119 0 227 -3 240 -6 12
-4 22 -14 22 -24 0 -21 39 -24 580 -41 184 -6 508 -16 720 -23 212 -8 388 -11
393 -9 4 2 7 15 7 29 0 22 4 24 45 24 44 0 45 -1 45 -32 l0 -31 368 6 c202 4
557 7 789 7 l422 0 3 33 c3 29 6 32 40 35 35 3 36 2 43 -37 7 -40 8 -41 48
-41 66 0 85 -9 89 -39 3 -26 3 -26 83 -23 185 6 769 63 777 75 4 6 8 22 8 34
0 29 3 30 88 38 l72 8 -34 -74 c-50 -110 -116 -306 -116 -345 0 -44 25 -104
43 -104 7 0 87 -9 178 -21 181 -22 231 -20 277 15 55 40 73 73 178 323 56 135
106 248 111 253 4 4 43 11 86 14 l77 7 0 -83 c0 -281 104 -538 300 -742 148
-154 320 -252 532 -303 115 -28 365 -25 482 6 126 33 232 80 333 147 240 160
405 406 457 684 20 101 20 299 2 395 -8 39 -13 71 -12 71 0 1 88 9 193 17 106
9 197 19 203 22 5 3 13 24 16 46 l7 40 27 -26 27 -26 -17 -99 -17 -100 56 6
c101 9 118 14 146 40 26 24 27 28 20 90 -6 54 -4 69 10 84 11 12 15 28 12 41
-3 12 3 49 13 83 45 143 54 207 54 381 1 151 -1 173 -18 200 -50 78 -92 96
-120 53 -7 -13 -49 -101 -92 -197 -81 -179 -92 -190 -93 -95 -1 46 -10 70 -81
224 -47 103 -49 109 -70 295 -13 105 -28 205 -36 223 -12 31 -12 32 11 32 13
0 47 -5 75 -11 63 -13 88 0 119 63 51 106 48 290 -6 389 -31 58 -49 66 -172
74 -82 6 -93 5 -88 -9 5 -12 -4 -18 -36 -26 -23 -6 -72 -23 -109 -39 l-67 -29
-86 84 c-306 295 -710 476 -1289 574 -375 63 -697 82 -1366 82 l-535 -1 -459
605 c-253 332 -463 604 -468 604 -21 0 -3 28 37 58 25 18 45 37 45 42 0 46
-473 212 -835 294 -298 67 -518 98 -962 136 -489 41 -691 45 -1193 25z m1528
-616 c286 -31 582 -135 802 -282 99 -66 229 -177 282 -240 l43 -50 -409 6
c-225 4 -521 7 -658 7 l-248 0 0 269 c0 148 3 276 6 285 7 19 45 20 182 5z
m-731 -19 c70 -42 67 -19 80 -590 9 -353 9 -527 2 -553 -20 -77 7 -73 -677
-81 -334 -3 -718 -9 -854 -12 l-246 -7 -49 46 c-47 45 -48 47 -47 104 1 67 47
191 125 342 134 256 336 451 600 575 252 119 591 191 924 195 93 1 115 -2 142
-19z m-1983 -105 c12 -23 22 -66 24 -102 l4 -62 -58 -78 c-113 -149 -194 -309
-269 -526 -20 -56 -38 -108 -40 -115 -3 -8 -22 7 -51 39 -70 79 -153 148 -219
182 -133 68 -319 38 -488 -77 -21 -14 -40 -26 -43 -26 -11 0 51 105 104 176
65 87 203 223 297 295 178 136 416 259 620 320 81 24 94 21 119 -26z m4294
-470 c87 -103 163 -218 216 -322 28 -56 36 -84 36 -125 l0 -53 -62 110 c-33
61 -97 171 -142 245 -44 74 -79 143 -78 153 2 9 -3 17 -11 17 -14 0 -22 10
-64 78 l-17 27 23 -20 c13 -11 57 -60 99 -110z m-488 -4 l65 -6 48 -70 c27
-38 59 -91 73 -117 l24 -47 -43 -11 c-96 -26 -269 -147 -426 -299 l-85 -81
-468 0 -468 0 0 320 0 320 608 -1 c334 -1 636 -4 672 -8z m194 -353 c-31 -61
-78 -122 -152 -200 l-75 -78 -106 0 -106 1 65 60 c136 127 316 249 368 249 22
0 22 0 6 -32z m100 -82 c9 -27 16 -58 16 -69 0 -31 -30 -73 -73 -101 -34 -21
-53 -26 -106 -26 l-65 0 41 43 c53 55 113 134 138 180 22 42 26 40 49 -27z
m-7454 -2176 c0 -22 -75 -190 -85 -190 -3 0 -24 14 -46 32 l-40 32 73 73 c74
75 98 88 98 53z m40 -265 c0 -19 -11 -19 -36 0 -18 14 -18 14 9 15 17 0 27 -5
27 -15z m3613 -342 c-13 -2 -35 -2 -50 0 -16 2 -5 4 22 4 28 0 40 -2 28 -4z"/>
</g>
</svg>
